<svg width="66" height="65" viewBox="0 0 66 65" fill="none" xmlns="http://www.w3.org/2000/svg">
<mask id="mask0_250_386" style="mask-type:luminance" maskUnits="userSpaceOnUse" x="0" y="0" width="66" height="65">
<path d="M66 0H0V65H66V0Z" fill="white"/>
</mask>
<g mask="url(#mask0_250_386)">
<path d="M31.169 0.0344613C60.7722 -1.29313 77.237 33.0941 57.173 54.622C42.2746 70.6051 15.6986 67.6376 4.57538 49.0339C-7.93823 28.1222 6.62577 1.13645 31.169 0.0344613ZM49.7458 12.2344C48.0474 10.6379 46.0674 9.36232 43.9114 8.45123C32.357 3.34911 18.761 6.94142 11.325 17.0415C7.91937 21.7011 6.12418 27.3326 6.22977 33.0768C6.36177 33.1028 6.43218 33.016 6.49378 32.9206C6.74898 32.5301 7.05697 31.5323 7.30337 31.029C12.7506 20.2434 26.0298 15.8528 36.9682 21.2239C37.065 21.2673 37.1618 21.3193 37.2586 21.3714C37.8834 21.6577 38.473 22.0222 39.001 22.456C37.8746 22.5168 36.757 22.6469 35.6482 22.8465C27.1386 24.8943 21.225 35.3241 31.8026 39.3937C40.4266 42.743 50.1682 38.5694 53.565 30.0745C56.029 23.9138 54.533 16.894 49.7546 12.2344M21.7794 25.6752C12.3106 29.1894 8.37698 40.8428 13.4986 49.4417C17.1594 55.5938 25.2378 58.6221 32.2074 58.8998C32.6474 58.9171 33.0962 58.8824 33.5362 58.8998L33.3778 58.6481C21.4714 54.1187 15.5402 40.9295 20.1338 29.1894C20.4066 28.504 20.7058 27.8271 21.0402 27.1677C21.137 26.9681 21.8762 25.788 21.7794 25.6926M59.7074 31.9574L59.4434 32.1136C54.841 43.845 41.4738 49.6847 29.5674 45.1466C29.2506 45.0251 28.9338 44.895 28.617 44.7648C27.913 44.4611 26.8658 43.7669 26.2586 43.576C26.153 43.5413 25.9682 43.5066 26.0122 43.6628C26.2586 44.2702 26.549 44.8602 26.8834 45.4243C33.1666 56.6698 49.473 56.7739 56.117 45.6672C58.5282 41.4935 59.769 36.7645 59.6986 31.9574" fill="#07A7FB"/>
</g>
</svg>
