<svg width="61" height="54" viewBox="0 0 61 54" fill="none" xmlns="http://www.w3.org/2000/svg">
<mask id="mask0_250_393" style="mask-type:luminance" maskUnits="userSpaceOnUse" x="1" y="0" width="59" height="54">
<path d="M59.2565 0H1.74219V54H59.2565V0Z" fill="white"/>
</mask>
<g mask="url(#mask0_250_393)">
<path d="M55.1409 40.9825C53.9293 42.8474 52.4953 44.5625 50.8619 46.0904C45.3865 51.2058 38.0937 54.0444 30.5171 53.9994C22.9406 54.0444 15.6478 51.2058 10.1724 46.0904C-0.62492 36.1367 -1.10804 19.5173 9.08349 8.97197C9.43625 8.60498 9.79667 8.25296 10.1724 7.90844C15.6478 2.79305 22.9406 -0.0455107 30.5171 -0.000573101C38.0937 -0.0455107 45.3865 2.79305 50.8619 7.90844C52.4569 9.39887 53.8679 11.0765 55.0642 12.8965L49.911 14.3345L49.3128 13.5256C43.1703 5.15976 31.9665 1.99915 22.2044 5.86378C17.7643 7.55643 13.9607 10.5298 11.2844 14.372C6.6909 20.9928 6.23078 30.0777 10.1111 37.5223C13.2705 43.499 19.0296 47.7531 25.778 49.1012C32.5647 50.5842 39.6811 48.9814 45.1181 44.7498C46.7285 43.4391 48.1779 41.9562 49.4509 40.3309L50.049 39.5894L55.1409 40.975V40.9825Z" fill="#22C55E"/>
<path d="M59.0497 30.5126C58.7967 32.3551 58.3442 34.1676 57.6924 35.9126L56.7032 35.5831C55.7446 35.261 54.763 34.9989 53.7661 34.7967C52.8995 34.5945 52.0253 34.4597 51.1434 34.3923C49.1956 34.4971 46.9564 36.6242 45.1543 38.3393C44.6405 38.8261 44.1574 39.283 43.6973 39.6874C39.5792 43.2749 35.2772 45.0275 30.5763 45.0275C30.3309 45.0275 30.0779 45.0275 29.8248 45.0125C25.9675 44.7054 22.2943 43.2749 19.2805 40.9007C15.4539 38.0771 12.954 33.8605 12.3405 29.2169C11.7807 24.6183 13.0767 19.9898 15.96 16.3124C18.6824 12.7548 22.624 10.2757 27.0718 9.33206C35.7066 7.61694 42.3629 13.0469 43.6052 14.1554L45.3383 15.6982L39.4872 17.9226L38.8354 17.4133C36.3891 15.511 33.3294 14.5074 30.2006 14.5898C27.7696 14.747 25.4231 15.526 23.3909 16.8441C17.6701 20.7462 16.2668 28.4305 20.2621 34.0178C24.2574 39.605 32.1254 40.9756 37.8461 37.0735C37.9382 37.0136 38.0302 36.9462 38.1222 36.8788C39.2648 36.025 40.3461 35.0963 41.3507 34.1002C43.8966 31.696 46.78 28.9773 50.783 28.7751C52.9072 28.79 55.0084 29.1795 56.9946 29.9135C57.3933 30.0333 57.7614 30.1531 58.1372 30.258L59.0497 30.5201V30.5126Z" fill="#22C55E"/>
<path d="M59.257 25.7642L57.3475 25.1351C51.0363 23.2402 47.3401 24.1689 45.1008 25.4497C42.0104 27.2247 38.3142 31.6211 35.0934 33.456C33.759 34.2275 32.2483 34.6619 30.6916 34.7218C30.4462 34.7218 30.2008 34.7068 29.9631 34.6843C28.7668 34.5495 27.6165 34.1601 26.5966 33.5384C25.1089 32.6397 23.9739 31.2766 23.3758 29.6663L22.793 28.2433L27.9232 26.678L28.5137 27.6291C28.8741 28.2208 29.4109 28.6927 30.0551 28.9848C32.233 29.9135 35.6302 28.2657 38.2988 24.7232C43.1147 18.9337 51.2894 16.9789 58.2985 19.9373C58.8429 21.8397 59.165 23.787 59.257 25.7567" fill="#22C55E"/>
</g>
</svg>
