<svg width="61" height="55" viewBox="0 0 61 55" fill="none" xmlns="http://www.w3.org/2000/svg">
<mask id="mask0_250_404" style="mask-type:luminance" maskUnits="userSpaceOnUse" x="0" y="0" width="61" height="55">
<path d="M61 0H0V54.9917H61V0Z" fill="white"/>
</mask>
<g mask="url(#mask0_250_404)">
<path d="M60.2009 35.7477C55.527 35.3585 50.8448 36.2942 46.6737 38.4472C42.2059 40.8155 39.7741 44.9227 34.8117 46.4463C29.907 47.9699 24.5654 47.0094 20.4932 43.871C19.3968 43.0098 18.4654 41.8919 17.3855 41.0059C14.4591 38.6459 11.0382 36.9898 7.37819 36.17C4.94643 35.7725 2.4817 35.6235 0.0252179 35.7477C-0.0901875 35.8636 0.297245 37.0643 0.371434 37.3045C1.04738 39.4574 1.95414 41.5276 3.08346 43.4818C5.37508 43.6474 7.61725 44.2519 9.69454 45.2539C12.489 46.6864 14.2531 49.0713 16.792 50.835C25.0105 56.5238 35.9081 56.3748 43.9617 50.4624C45.6928 49.1955 47.0447 47.5393 48.7758 46.3138C51.2652 44.6328 54.1586 43.6474 57.1509 43.4735C57.9093 42.1404 58.577 40.7492 59.1458 39.3249C59.3189 38.8778 60.3987 35.9713 60.2091 35.7477H60.2009Z" fill="#CB4C1E"/>
<path d="M2.06084 29.3136C6.21544 30.0092 10.2464 31.2927 14.03 33.1393C16.8327 34.5304 19.4788 36.2279 21.9106 38.207C24.3918 40.1364 26.5268 41.8008 29.9972 41.8008H30.1208C33.7231 41.7594 35.8829 39.9873 38.1745 38.1076C38.5702 37.7847 38.9741 37.4452 39.4027 37.114C39.6418 36.9401 39.8726 36.7579 40.1034 36.5757C41.8015 35.2839 43.648 34.2157 45.6099 33.396C49.748 31.6901 54.2158 30.92 58.6837 31.1519L61 31.243L60.8269 28.9161C60.0356 18.4577 54.084 9.084 44.9752 3.95001C30.566 -4.28923 12.2412 0.761962 4.03922 15.2282C1.77233 19.2361 0.445165 23.7159 0.164894 28.3199L0.0742188 28.9824L2.06084 29.3219V29.3136ZM33.9045 36.1865H32.4372V24.693H42.6918V30.1417C40.1117 31.4003 37.7129 32.9985 35.5449 34.8865C34.9349 35.3916 34.3991 35.8222 33.9045 36.1865ZM24.4412 34.9196C22.2815 33.1641 19.9652 31.6156 17.5252 30.2742V24.693H27.7798V36.1865H26.1229C25.6283 35.8305 25.076 35.4081 24.4495 34.9196M12.8677 24.693V28.0715C10.37 27.0613 7.78989 26.258 5.15206 25.6784C5.20976 25.3472 5.27571 25.016 5.34165 24.693H12.8677ZM6.85017 20.0144C8.11963 17.0748 9.93314 14.4002 12.1918 12.1396C12.4144 11.916 12.6452 11.7007 12.8677 11.4854V20.0144H6.84192H6.85017ZM17.5252 20.0144V8.03236C20.6658 6.2189 24.1692 5.1093 27.7798 4.78635V20.0062H17.5252V20.0144ZM32.4372 20.0144V4.79463C36.0477 5.11758 39.5429 6.22718 42.6918 8.04064V20.0227H32.4372V20.0144ZM54.8753 24.693C55.0402 25.4548 55.1721 26.2332 55.2627 27.0116C52.5837 27.1524 49.9294 27.5995 47.3492 28.3613V24.693H54.8753ZM47.3492 20.0144V11.4854C47.58 11.7007 47.8026 11.916 48.0252 12.1396C50.2838 14.4002 52.0973 17.0748 53.3668 20.0144H47.341H47.3492Z" fill="#CB4C1E"/>
</g>
</svg>
