<svg width="21" height="20" viewBox="0 0 21 20" fill="none" xmlns="http://www.w3.org/2000/svg">
<mask id="mask0_147_7942" style="mask-type:alpha" maskUnits="userSpaceOnUse" x="0" y="0" width="21" height="20">
<path d="M0 0.00012207H20.42V19.0361H0V0.00012207Z" fill="white"/>
</mask>
<g mask="url(#mask0_147_7942)">
<path d="M2.8192 3.15485C6.57102 -0.866994 12.9787 -1.04267 17.0428 2.62383C19.0609 4.44447 20.4142 7.28988 20.42 10.0341C20.4201 10.102 20.4034 10.1929 20.3254 10.2054C19.6917 10.2178 19.0581 10.1652 18.431 10.2623C17.4081 10.4207 16.577 10.8396 15.8027 11.5103C15.5117 11.7623 15.2509 12.0452 14.9453 12.2878C12.1289 14.5245 8.10941 14.4802 5.33409 12.1966C4.82384 11.7768 4.42303 11.2938 3.84486 10.9435C2.66989 10.2314 1.425 10.1432 0.0737813 10.2054L0 10.1451C0.00907104 9.8371 0.00754162 9.52447 0.0344383 9.21674C0.234951 6.92588 1.26821 4.81754 2.8192 3.15485V3.15485ZM5.13669 10.2054H15.2625C15.3236 10.1511 15.3059 10.0338 15.3031 9.95365C15.2103 7.36514 13.0261 5.23086 10.4644 5.08862C7.73987 4.93737 5.20019 7.14738 5.09603 9.90102C5.09365 9.96462 5.0782 10.1873 5.13669 10.2054Z" fill="white"/>
<path d="M20.046 12.7663C20.1087 12.8372 19.7566 13.7843 19.6993 13.9306C19.5161 14.3975 19.2909 14.8449 19.047 15.2825C18.0687 15.3598 17.1126 15.642 16.3066 16.2074C15.7392 16.6054 15.2969 17.145 14.7308 17.5586C12.0996 19.4809 8.52115 19.5356 5.83781 17.6794C5.00834 17.1056 4.43127 16.3283 3.51631 15.861C2.84305 15.5171 2.10249 15.3544 1.35229 15.2825C0.988969 14.6461 0.67818 13.9729 0.464008 13.2702C0.440593 13.1934 0.313071 12.802 0.350621 12.7637C1.162 12.7562 1.95883 12.7402 2.75714 12.9021C3.89223 13.1323 5.1385 13.7465 6.03262 14.4785C6.38692 14.7685 6.69059 15.1301 7.0508 15.4117C8.36916 16.4425 10.1359 16.7405 11.7367 16.2521C13.3594 15.7572 14.1554 14.4172 15.618 13.6466C17.0038 12.9165 18.4876 12.6714 20.046 12.7663Z" fill="white"/>
</g>
</svg>
