<svg width="24" height="23" viewBox="0 0 24 23" fill="none" xmlns="http://www.w3.org/2000/svg">
<path d="M21.9784 17.271C21.4891 18.0449 20.8996 18.7677 20.2161 19.4244C17.9793 21.5737 15.0054 22.7573 11.8421 22.7573C8.67882 22.7573 5.70488 21.5737 3.46814 19.4244C1.23182 17.2755 0 14.4179 0 11.3788C0 8.3393 1.23182 5.48212 3.46814 3.33283C5.70488 1.18355 8.67882 0 11.8421 0C15.0054 0 17.9793 1.18355 20.2161 3.33283C20.8839 3.97473 21.4623 4.67975 21.9446 5.43385L19.825 6.03904L19.5795 5.69705C18.2821 3.89099 16.3082 2.56099 14.1642 2.04821C12.2621 1.59319 10.2761 1.73964 8.42181 2.47147C6.57945 3.19918 5.02545 4.43924 3.92729 6.05842C2.03584 8.84713 1.84607 12.6767 3.4438 15.8148C4.71357 18.3089 7.06417 20.0874 9.89248 20.6929C12.7447 21.3039 15.646 20.6348 17.8531 18.858C18.4331 18.3906 18.9995 17.7995 19.6352 16.9975L19.8823 16.686L21.9784 17.271Z" fill="white"/>
<path d="M23.5862 12.8576C23.4814 13.6385 23.2937 14.4009 23.0272 15.1348L22.6204 14.9949C22.2273 14.8596 21.8206 14.7478 21.4117 14.6624C20.7686 14.5275 20.4056 14.4884 20.3313 14.4908C19.5306 14.5354 18.6078 15.4318 17.8665 16.1525C17.6561 16.3571 17.4572 16.5502 17.2662 16.7206C15.5711 18.2325 13.801 18.9705 11.8645 18.9705C11.7622 18.9705 11.6591 18.9684 11.556 18.9643C10.1521 18.9082 8.52965 18.2605 7.21574 17.2317C6.08004 16.3423 4.66258 14.7656 4.35978 12.3073C4.1234 10.3903 4.65269 8.4588 5.85026 6.86891C6.98761 5.35905 8.65422 4.28689 10.4232 3.92675C13.9779 3.20276 16.7171 5.49188 17.2299 5.95805L17.9448 6.60737L15.5361 7.54547L15.2667 7.32971C14.791 6.94894 13.4924 6.07067 11.7119 6.1408C11.5584 6.14699 10.1748 6.22454 8.90959 7.09167C7.54453 8.02731 6.7306 9.52479 6.67697 11.2001C6.62375 12.8675 7.33619 14.4058 8.63154 15.4207C10.5477 16.9223 12.9771 16.9677 14.9721 15.5387C15.4168 15.2206 15.8467 14.8056 16.3021 14.3663C17.3504 13.3543 18.5381 12.2075 20.1849 12.1204C21.0751 12.073 21.9604 12.3531 22.7413 12.5998C22.9043 12.6514 23.0581 12.7 23.2104 12.7454L23.5862 12.8576Z" fill="white"/>
<path d="M23.6735 10.8564L22.8872 10.5924C20.2882 9.79371 18.7673 10.1844 17.8461 10.7252C16.5742 11.4727 15.0524 13.3254 13.7278 14.1001C13.5458 14.2066 12.786 14.6323 11.9176 14.6323C11.8194 14.6323 11.7191 14.6277 11.6164 14.6174C11.0034 14.5564 10.5319 14.3134 10.2303 14.136C9.64412 13.7911 9.19818 13.242 8.90447 12.5044L8.66602 11.9046L10.7773 11.2442L11.0203 11.6443C11.2381 11.9818 11.4745 12.1369 11.6544 12.2153C12.5512 12.6051 13.9481 11.9112 15.047 10.4195C15.4072 9.97935 16.7929 8.39111 19.221 7.94268C21.0304 7.60852 22.5093 8.07469 23.2791 8.40306C23.5014 9.19677 23.6347 10.0185 23.6735 10.8564Z" fill="white"/>
</svg>
