<svg width="23" height="23" viewBox="0 0 23 23" fill="none" xmlns="http://www.w3.org/2000/svg">
<path d="M10.4493 0.0126407C20.3739 -0.437792 25.8928 11.2529 19.166 18.5722C14.1713 24.0068 5.26226 22.9969 1.53244 16.6719C-2.66002 9.56238 2.22185 0.386009 10.4493 0.0126407ZM16.6761 4.1608C16.1188 3.61015 15.4325 3.19355 14.7191 2.87476C10.8221 1.13326 6.28683 2.37534 3.79554 5.79599C2.65127 7.36708 2.05897 9.29706 2.08695 11.2468C2.13008 11.2548 2.15389 11.2258 2.17413 11.1943C2.25959 11.0611 2.36163 10.7221 2.44653 10.5511C4.27822 6.86182 8.79954 5.35786 12.4898 7.26596C12.6838 7.36627 12.916 7.48861 13.0742 7.635C12.6989 7.67534 12.3179 7.67921 11.9493 7.76935C9.09615 8.467 7.11333 12.0125 10.6589 13.3952C13.4743 14.4931 16.6388 13.1956 17.8603 10.4502C18.8105 8.31444 18.3304 5.79517 16.6761 4.1608ZM7.30062 8.72907C4.12613 9.92456 2.80769 13.8856 4.52412 16.8085C5.75216 18.8998 8.46107 19.9286 10.7969 20.0226C10.9449 20.0286 11.0949 20.0162 11.2429 20.0214L11.19 19.9347C6.90335 18.267 5.03935 13.3907 7.05371 9.2322C7.08673 9.16414 7.33303 8.76249 7.30062 8.72907ZM20.0175 10.8655L19.9303 10.9179C18.3739 15.0179 13.6434 16.9887 9.59806 15.2191C9.36311 15.1163 9.01156 14.8802 8.80789 14.8138C8.77329 14.8025 8.70956 14.7887 8.72594 14.8447C8.77029 14.9961 8.93495 15.295 9.017 15.444C11.1225 19.2683 16.591 19.3018 18.8173 15.5275C19.6339 14.1432 20.0319 12.4707 20.0175 10.8655Z" fill="white"/>
</svg>
