<svg width="34" height="34" viewBox="0 0 34 34" fill="none" xmlns="http://www.w3.org/2000/svg">
<rect width="34" height="34" rx="17" fill="#0C9CFA" fill-opacity="0.15"/>
<g clip-path="url(#clip0_266_16)">
<mask id="mask0_266_16" style="mask-type:luminance" maskUnits="userSpaceOnUse" x="9" y="9" width="15" height="15">
<path d="M24 9H9V24H24V9Z" fill="white"/>
</mask>
<g mask="url(#mask0_266_16)">
<path d="M16.0839 9.00796C22.8119 8.70159 26.5539 16.6371 21.9939 21.6051C18.6079 25.2935 12.5679 24.6087 10.0399 20.3155C7.19586 15.4897 10.5059 9.26226 16.0839 9.00796ZM20.3059 11.8233C19.9199 11.4549 19.4699 11.1605 18.9799 10.9503C16.3539 9.77288 13.2639 10.6019 11.5739 12.9327C10.7999 14.008 10.3919 15.3075 10.4159 16.6331C10.4459 16.6391 10.4619 16.6191 10.4759 16.5971C10.5339 16.507 10.6039 16.2767 10.6599 16.1605C11.8979 13.6716 14.9159 12.6583 17.4019 13.8978C17.4239 13.9078 17.4459 13.9199 17.4679 13.9319C17.6099 13.9979 17.7439 14.082 17.8639 14.1822C17.6079 14.1962 17.3539 14.2262 17.1019 14.2723C15.1679 14.7448 13.8239 17.1517 16.2279 18.0909C18.1879 18.8638 20.4019 17.9006 21.1739 15.9403C21.7339 14.5186 21.3939 12.8986 20.3079 11.8233M13.9499 14.9251C11.7979 15.736 10.9039 18.4253 12.0679 20.4096C12.8999 21.8293 14.7359 22.5282 16.3199 22.5923C16.4199 22.5963 16.5219 22.5883 16.6219 22.5923L16.5859 22.5342C13.8799 21.4889 12.5319 18.4453 13.5759 15.736C13.6379 15.5778 13.7059 15.4217 13.7819 15.2695C13.8039 15.2234 13.9719 14.9511 13.9499 14.9291M22.5699 16.3748L22.5099 16.4108C21.4639 19.1181 18.4259 20.4657 15.7199 19.4185C15.6479 19.3904 15.5759 19.3604 15.5039 19.3303C15.3439 19.2603 15.1059 19.1001 14.9679 19.056C14.9439 19.048 14.9019 19.04 14.9119 19.076C14.9679 19.2162 15.0339 19.3524 15.1099 19.4825C16.5379 22.0776 20.2439 22.1017 21.7539 19.5386C22.3019 18.5754 22.5839 17.4841 22.5679 16.3748" fill="#07A7FB"/>
</g>
</g>
<defs>
<clipPath id="clip0_266_16">
<rect width="15" height="15" fill="white" transform="translate(9 9)"/>
</clipPath>
</defs>
</svg>
