<svg width="34" height="34" viewBox="0 0 34 34" fill="none" xmlns="http://www.w3.org/2000/svg">
<rect width="34" height="34" rx="17" fill="#CB4C1E" fill-opacity="0.3"/>
<mask id="mask0_266_27" style="mask-type:luminance" maskUnits="userSpaceOnUse" x="8" y="9" width="18" height="17">
<path d="M25.9993 9.56738H8.41016V25.4241H25.9993V9.56738Z" fill="white"/>
</mask>
<g mask="url(#mask0_266_27)">
<path d="M25.3062 19.7471C24.031 19.6409 22.7536 19.8962 21.6156 20.4836C20.3967 21.1297 19.7332 22.2503 18.3793 22.666C17.0412 23.0816 15.5839 22.8196 14.4729 21.9634C14.1737 21.7284 13.9196 21.4234 13.625 21.1817C12.8266 20.5378 11.8933 20.086 10.8947 19.8623C10.2313 19.7539 9.55882 19.7132 8.88863 19.7471C8.85714 19.7787 8.96284 20.1063 8.98308 20.1718C9.1675 20.7592 9.41489 21.324 9.723 21.8572C10.3482 21.9024 10.9599 22.0673 11.5267 22.3406C12.2891 22.7315 12.7704 23.3821 13.4631 23.8633C15.7053 25.4154 18.6785 25.3747 20.8757 23.7617C21.348 23.416 21.7168 22.9642 22.1891 22.6298C22.8683 22.1712 23.6577 21.9024 24.4741 21.8549C24.681 21.4912 24.8632 21.1116 25.0183 20.7231C25.0656 20.6011 25.3602 19.8081 25.3085 19.7471H25.3062Z" fill="#CB4C1E"/>
<path d="M9.4463 17.9917C10.5798 18.1814 11.6795 18.5316 12.7118 19.0354C13.4765 19.4149 14.1984 19.8781 14.8619 20.418C15.5388 20.9444 16.1213 21.3985 17.0681 21.3985H17.1018C18.0847 21.3872 18.6739 20.9038 19.2991 20.3909C19.4071 20.3028 19.5173 20.2102 19.6342 20.1198C19.6994 20.0724 19.7624 20.0227 19.8254 19.973C20.2887 19.6205 20.7924 19.3291 21.3277 19.1054C22.4567 18.64 23.6756 18.4299 24.8946 18.4932L25.5265 18.5181L25.4793 17.8832C25.2634 15.0299 23.6396 12.4725 21.1545 11.0718C17.2233 8.82388 12.2238 10.202 9.98606 14.1488C9.36759 15.2422 9.0055 16.4645 8.92904 17.7206L8.9043 17.9013L9.4463 17.9939V17.9917ZM18.1341 19.8668H17.7338V16.731H20.5315V18.2176C19.8276 18.561 19.1732 18.997 18.5817 19.5121C18.4153 19.6499 18.2691 19.7674 18.1341 19.8668ZM15.5523 19.5211C14.9631 19.0422 14.3311 18.6197 13.6654 18.2537V16.731H16.4631V19.8668H16.0111C15.8762 19.7696 15.7255 19.6544 15.5545 19.5211M12.3947 16.731V17.6528C11.7133 17.3772 11.0093 17.158 10.2897 16.9999C10.3054 16.9095 10.3234 16.8191 10.3414 16.731H12.3947ZM10.753 15.4546C11.0993 14.6526 11.5941 13.9229 12.2103 13.3061C12.271 13.2451 12.334 13.1864 12.3947 13.1276V15.4546H10.7507H10.753ZM13.6654 15.4546V12.1856C14.5223 11.6908 15.4781 11.3881 16.4631 11.2999V15.4523H13.6654V15.4546ZM17.7338 15.4546V11.3022C18.7189 11.3903 19.6724 11.693 20.5315 12.1878V15.4569H17.7338V15.4546ZM23.8556 16.731C23.9005 16.9389 23.9365 17.1512 23.9613 17.3636C23.2303 17.402 22.5062 17.524 21.8022 17.7319V16.731H23.8556ZM21.8022 15.4546V13.1276C21.8652 13.1864 21.9259 13.2451 21.9866 13.3061C22.6029 13.9229 23.0976 14.6526 23.444 15.4546H21.8H21.8022Z" fill="#CB4C1E"/>
</g>
</svg>
