<svg width="34" height="34" viewBox="0 0 34 34" fill="none" xmlns="http://www.w3.org/2000/svg">
<rect width="34" height="34" rx="17" fill="#22C55E" fill-opacity="0.15"/>
<g clip-path="url(#clip0_266_3)">
<mask id="mask0_266_3" style="mask-type:luminance" maskUnits="userSpaceOnUse" x="9" y="10" width="15" height="14">
<path d="M24 10H9V24H24V10Z" fill="white"/>
</mask>
<g mask="url(#mask0_266_3)">
<path d="M22.9256 20.6252C22.6096 21.1087 22.2356 21.5534 21.8096 21.9495C20.3816 23.2757 18.4796 24.0116 16.5036 24C14.5276 24.0116 12.6256 23.2757 11.1976 21.9495C8.38163 19.3689 8.25563 15.0602 10.9136 12.3262C11.0056 12.231 11.0996 12.1398 11.1976 12.0504C12.6256 10.7242 14.5276 9.98831 16.5036 9.99996C18.4796 9.98831 20.3816 10.7242 21.8096 12.0504C22.2256 12.4369 22.5936 12.8718 22.9056 13.3437L21.5616 13.7165L21.4056 13.5068C19.8036 11.3378 16.8816 10.5184 14.3356 11.5203C13.1776 11.9592 12.1856 12.7301 11.4876 13.7262C10.2896 15.4427 10.1696 17.798 11.1816 19.7281C12.0056 21.2776 13.5076 22.3805 15.2676 22.7301C17.0376 23.1145 18.8936 22.699 20.3116 21.6019C20.7316 21.2621 21.1096 20.8776 21.4416 20.4563L21.5976 20.264L22.9256 20.6233V20.6252Z" fill="#22C55E"/>
<path d="M23.9457 17.9107C23.8797 18.3884 23.7617 18.8583 23.5917 19.3107L23.3337 19.2252C23.0837 19.1417 22.8277 19.0738 22.5677 19.0214C22.3417 18.9689 22.1137 18.934 21.8837 18.9165C21.3757 18.9437 20.7917 19.4951 20.3217 19.9398C20.1877 20.066 20.0617 20.1845 19.9417 20.2893C18.8677 21.2194 17.7457 21.6738 16.5197 21.6738C16.4557 21.6738 16.3897 21.6738 16.3237 21.6699C15.3177 21.5903 14.3597 21.2194 13.5737 20.6039C12.5757 19.8718 11.9237 18.7786 11.7637 17.5748C11.6177 16.3825 11.9557 15.1825 12.7077 14.2291C13.4177 13.3068 14.4457 12.6641 15.6057 12.4194C17.8577 11.9748 19.5937 13.3825 19.9177 13.6699L20.3697 14.0699L18.8437 14.6466L18.6737 14.5146C18.0357 14.0214 17.2377 13.7612 16.4217 13.7825C15.7877 13.8233 15.1757 14.0252 14.6457 14.367C13.1537 15.3786 12.7877 17.3709 13.8297 18.8194C14.8717 20.268 16.9237 20.6233 18.4157 19.6117C18.4397 19.5961 18.4637 19.5786 18.4877 19.5612C18.7857 19.3398 19.0677 19.099 19.3297 18.8408C19.9937 18.2175 20.7457 17.5126 21.7897 17.4602C22.3437 17.4641 22.8917 17.5651 23.4097 17.7553C23.5137 17.7864 23.6097 17.8175 23.7077 17.8447L23.9457 17.9126V17.9107Z" fill="#22C55E"/>
<path d="M24.0002 16.6796L23.5022 16.5165C21.8562 16.0252 20.8922 16.266 20.3082 16.5981C19.5022 17.0583 18.5382 18.1981 17.6982 18.6738C17.3502 18.8738 16.9562 18.9864 16.5502 19.0019C16.4862 19.0019 16.4222 18.9981 16.3602 18.9922C16.0482 18.9573 15.7482 18.8563 15.4822 18.6951C15.0942 18.4621 14.7982 18.1087 14.6422 17.6913L14.4902 17.3223L15.8282 16.9165L15.9822 17.1631C16.0762 17.3165 16.2162 17.4388 16.3842 17.5146C16.9522 17.7553 17.8382 17.3282 18.5342 16.4097C19.7902 14.9087 21.9222 14.4019 23.7502 15.1689C23.8922 15.6621 23.9762 16.167 24.0002 16.6777" fill="#22C55E"/>
</g>
</g>
<defs>
<clipPath id="clip0_266_3">
<rect width="15" height="14" fill="white" transform="translate(9 10)"/>
</clipPath>
</defs>
</svg>
