<svg width="454" height="84" viewBox="0 0 454 84" fill="none" xmlns="http://www.w3.org/2000/svg">
<g filter="url(#filter0_d_206_4839)">
<g clip-path="url(#clip0_206_4839)">
<rect width="429" height="59" transform="translate(12.5 12.5)" fill="#161616"/>
<g opacity="0.81">
<mask id="mask0_206_4839" style="mask-type:alpha" maskUnits="userSpaceOnUse" x="353" y="23" width="24" height="24">
<path d="M353.318 23.5H376.554V46.8697H353.318V23.5Z" fill="black"/>
</mask>
<g mask="url(#mask0_206_4839)">
<path d="M368.858 38.8215C368.697 38.9904 368.449 39.222 368.266 39.3645C368.14 39.4621 367.579 39.7792 367.559 39.8867L367.559 46.031C367.388 46.8766 366.237 47.1652 365.687 46.5119C365.47 46.2542 365.436 45.988 365.42 45.6576C365.39 45.0514 365.432 44.4319 365.437 43.8258C365.367 43.6691 365.231 43.7464 365.115 43.7476C364.973 43.749 364.569 43.6891 364.54 43.8405C364.502 44.493 364.589 45.1969 364.539 45.843C364.435 47.1923 362.568 47.2017 362.403 45.8965L362.397 39.8912C362.378 39.8281 361.982 39.6229 361.897 39.5632C361.296 39.1408 360.668 38.4862 360.296 37.8518C360.053 37.4374 359.608 36.4331 359.689 35.9711C359.809 35.2881 360.569 34.9193 361.197 35.1872C361.796 35.4426 361.832 36.1851 362.113 36.7021C363.346 38.9635 366.744 38.8766 367.857 36.5516C368.037 36.174 368.089 35.6828 368.399 35.3839C368.808 34.9896 369.451 35.0203 369.868 35.3855C370.394 35.8466 370.194 36.4985 369.976 37.0676C369.746 37.6661 369.299 38.3573 368.858 38.8215Z" fill="white"/>
<path d="M363.638 36.8251C362.548 36.012 362.517 34.3633 363.547 33.4821C364.895 32.329 367.038 33.2501 367.075 35.0306C367.113 36.8462 365.101 37.9172 363.638 36.8251Z" fill="white"/>
<path d="M373.304 35.1182C373.304 37.4312 372.106 39.4328 372.001 39.5977C371.086 41.0404 369.943 41.86 369.297 42.2561C368.889 42.4143 368.431 42.2469 368.232 41.8871C368.014 41.4916 368.162 40.961 368.586 40.7264C369.211 40.2937 370.788 39.0731 371.404 36.9152C371.453 36.7438 371.648 35.9554 371.648 35.1182C371.648 31.4172 368.637 28.4065 364.936 28.4065C361.235 28.4065 358.225 31.4172 358.225 35.1182C358.225 35.9778 358.458 36.8773 358.473 36.9291C359.006 38.8079 360.242 39.946 360.814 40.4103C361.261 40.6741 361.435 41.2066 361.264 41.6096C361.06 42.0896 360.391 42.3303 359.846 42.0114C359.295 41.5223 358.53 40.7354 357.874 39.6024C356.998 38.0882 356.568 36.3927 356.568 35.1182C356.568 30.5041 360.322 26.7502 364.936 26.7502C369.55 26.7502 373.304 30.5041 373.304 35.1182Z" fill="white"/>
<path d="M376.554 35.118C376.554 36.6787 376.248 38.1925 375.665 39.5909C374.853 41.5402 373.72 42.7413 373.152 43.3332C371.992 44.54 370.818 45.2999 369.985 45.7565C369.366 45.9328 368.762 45.5925 368.619 45.0939C368.512 44.7224 368.669 44.2898 369.013 44.0129C369.891 43.5746 371.717 42.5149 373.138 40.3825C373.571 39.7318 374.854 37.6013 374.898 35.118C374.988 29.9429 370.55 25.1563 364.936 25.1563C359.325 25.1563 354.977 29.9717 354.975 35.118C354.973 38.999 357.443 42.6442 361.264 44.3777C361.65 44.6154 361.788 45.1022 361.601 45.4801C361.435 45.8143 361.045 46.0016 360.657 45.9211C359.726 45.5502 358.19 44.8004 356.721 43.3332C355.247 41.8609 354.519 40.3443 354.196 39.5652C353.62 38.1739 353.318 36.6691 353.318 35.118C353.318 32.0149 354.527 29.0972 356.721 26.9029C358.916 24.7086 361.833 23.5 364.936 23.5C368.04 23.5 370.957 24.7086 373.152 26.9029C375.346 29.0972 376.554 32.0149 376.554 35.118Z" fill="white"/>
<path d="M369.778 33.075C369.585 32.6643 369.251 32.0784 368.687 31.511C368.226 31.0478 366.879 29.8606 364.843 29.8528C362.889 29.8453 361.573 30.9292 361.134 31.3366C360.456 31.9659 360.077 32.639 359.874 33.075C359.768 33.4702 359.917 33.8774 360.222 34.0717C360.605 34.3153 361.18 34.1915 361.465 33.7389C362.089 32.4271 363.401 31.5847 364.826 31.5785C366.251 31.5847 367.563 32.4271 368.187 33.7389C368.472 34.1915 369.047 34.3153 369.43 34.0717C369.735 33.8774 369.884 33.4702 369.778 33.075Z" fill="white"/>
<path d="M373.308 35.1182C373.308 37.4312 372.11 39.4328 372.005 39.5977C371.09 41.0404 369.946 41.86 369.301 42.2561C368.893 42.4143 368.435 42.2469 368.236 41.8871C368.018 41.4916 368.166 40.961 368.59 40.7264C369.215 40.2937 370.792 39.0731 371.408 36.9152C371.456 36.7438 371.652 35.9554 371.652 35.1182C371.652 31.4172 368.641 28.4065 364.94 28.4065C361.239 28.4065 358.229 31.4172 358.229 35.1182C358.229 35.9778 358.462 36.8773 358.477 36.9291C359.01 38.8079 360.246 39.946 360.818 40.4103C361.265 40.6741 361.438 41.2066 361.268 41.6096C361.064 42.0896 360.395 42.3303 359.849 42.0114C359.299 41.5223 358.534 40.7354 357.878 39.6024C357.001 38.0882 356.572 36.3927 356.572 35.1182C356.572 30.5041 360.326 26.7502 364.94 26.7502C369.554 26.7502 373.308 30.5041 373.308 35.1182Z" fill="white"/>
</g>
</g>
<path opacity="0.81" d="M353.283 57.8696V50.1696H354.427C355.45 50.1696 356.132 50.8186 356.132 52.3256C356.132 53.7996 355.461 54.4596 354.427 54.4596H353.932V57.8696H353.283ZM354.438 50.7526H353.932V53.8876H354.438C355.076 53.8876 355.494 53.4366 355.494 52.3146C355.494 51.2036 355.076 50.7526 354.438 50.7526ZM357.275 57.8696V50.1696H358.463C359.475 50.1696 360.113 50.7856 360.113 52.1606C360.113 53.0736 359.816 53.6786 359.299 53.9536C359.75 54.1296 359.937 54.5256 359.937 55.1966C359.937 56.4726 359.959 57.2206 360.135 57.8696H359.486C359.354 57.3086 359.31 56.7036 359.31 55.1416C359.31 54.5146 359.068 54.2616 358.595 54.2616H357.924V57.8696H357.275ZM358.474 50.7526H357.924V53.6896H358.474C359.09 53.6896 359.475 53.2276 359.475 52.2156C359.475 51.1926 359.09 50.7526 358.474 50.7526ZM362.721 57.9356C361.698 57.9356 361.159 56.9016 361.159 54.0196C361.159 51.1376 361.698 50.1036 362.721 50.1036C363.744 50.1036 364.294 51.1376 364.294 54.0196C364.294 56.9016 363.744 57.9356 362.721 57.9356ZM362.721 57.3636C363.315 57.3636 363.656 56.3736 363.656 54.0196C363.656 51.6656 363.315 50.6756 362.721 50.6756C362.127 50.6756 361.797 51.6656 361.797 54.0196C361.797 56.3736 362.127 57.3636 362.721 57.3636ZM365.518 57.8696V50.1696H368.004V50.7526H366.167V53.6126H367.487V54.1846H366.167V57.8696H365.518ZM369.146 57.8696V50.1696H369.784V57.8696H369.146ZM371.097 57.8696V50.1696H371.746V57.2976H373.572V57.8696H371.097ZM374.703 57.8696V50.1696H377.2V50.7526H375.352V53.6016H376.683V54.1846H375.352V57.2976H377.2V57.8696H374.703Z" fill="white"/>
<g opacity="0.81">
<path d="M265.59 56.7969V49.0969H268.087V49.6799H266.239V52.5289H267.57V53.1119H266.239V56.2249H268.087V56.7969H265.59ZM269.006 56.7969L270.282 52.8259L269.072 49.0969H269.743L270.656 52.1329L271.569 49.0969H272.218L271.019 52.8149L272.284 56.7969H271.613L270.634 53.5189L269.655 56.7969H269.006ZM273.285 56.7969V49.0969H274.429C275.452 49.0969 276.134 49.7459 276.134 51.2529C276.134 52.7269 275.463 53.3869 274.429 53.3869H273.934V56.7969H273.285ZM274.44 49.6799H273.934V52.8149H274.44C275.078 52.8149 275.496 52.3639 275.496 51.2419C275.496 50.1309 275.078 49.6799 274.44 49.6799ZM277.278 56.7969V49.0969H277.927V56.2249H279.753V56.7969H277.278ZM282.036 56.8629C281.013 56.8629 280.474 55.8289 280.474 52.9469C280.474 50.0649 281.013 49.0309 282.036 49.0309C283.059 49.0309 283.609 50.0649 283.609 52.9469C283.609 55.8289 283.059 56.8629 282.036 56.8629ZM282.036 56.2909C282.63 56.2909 282.971 55.3009 282.971 52.9469C282.971 50.5929 282.63 49.6029 282.036 49.6029C281.442 49.6029 281.112 50.5929 281.112 52.9469C281.112 55.3009 281.442 56.2909 282.036 56.2909ZM284.833 56.7969V49.0969H286.021C287.033 49.0969 287.671 49.7129 287.671 51.0879C287.671 52.0009 287.374 52.6059 286.857 52.8809C287.308 53.0569 287.495 53.4529 287.495 54.1239C287.495 55.3999 287.517 56.1479 287.693 56.7969H287.044C286.912 56.2359 286.868 55.6309 286.868 54.0689C286.868 53.4419 286.626 53.1889 286.153 53.1889H285.482V56.7969H284.833ZM286.032 49.6799H285.482V52.6169H286.032C286.648 52.6169 287.033 52.1549 287.033 51.1429C287.033 50.1199 286.648 49.6799 286.032 49.6799ZM288.837 56.7969V49.0969H291.334V49.6799H289.486V52.5289H290.817V53.1119H289.486V56.2249H291.334V56.7969H288.837Z" fill="white"/>
</g>
<g opacity="0.81" clip-path="url(#clip1_206_4839)">
<path d="M276.756 37.0461C275.821 36.3341 275.639 34.9999 276.349 34.062C277.058 33.1241 278.387 32.9414 279.321 33.6534C279.827 34.0372 280.132 34.6285 280.157 35.2631C280.191 36.4455 279.265 37.4299 278.088 37.467C277.61 37.4825 277.141 37.3339 276.756 37.0461Z" fill="white"/>
<path d="M286.316 35.2256C286.264 36.795 285.823 38.3242 285.028 39.6769C284.346 40.751 283.433 41.6518 282.351 42.3174C281.926 42.4969 281.435 42.2957 281.26 41.8685C281.09 41.4661 281.26 40.9987 281.648 40.7975C282.98 39.8936 283.967 38.5563 284.436 37.0117C284.59 36.4297 284.67 35.8292 284.676 35.2256C284.651 31.542 281.657 28.5796 277.988 28.6044C274.356 28.6291 271.417 31.5791 271.392 35.2256C271.405 35.8323 271.488 36.4359 271.639 37.0241C272.04 38.3861 272.851 39.5933 273.955 40.4817C274.374 40.717 274.562 41.2216 274.399 41.6735C274.152 42.1626 273.557 42.3607 273.07 42.1131C273.045 42.1007 273.02 42.0852 272.996 42.0697C272.222 41.3825 271.565 40.5746 271.044 39.6769C270.248 38.3242 269.804 36.7919 269.752 35.2225C269.752 30.6319 273.458 26.9111 278.031 26.9111C282.604 26.9111 286.313 30.6319 286.313 35.2225" fill="white"/>
<path d="M289.533 35.0431C289.533 36.5691 289.237 38.0797 288.654 39.4851C288.071 40.8719 287.226 42.1348 286.165 43.2028C285.25 44.1593 284.192 44.9734 283.033 45.611C282.478 45.7937 281.879 45.5027 281.679 44.9517C281.586 44.5462 281.738 44.1252 282.071 43.8776C283.72 43.0511 285.126 41.8098 286.153 40.2713C286.582 39.6244 287.852 37.5071 287.895 35.04C287.985 29.9015 283.594 25.1437 278.037 25.1437C272.481 25.1437 268.179 29.9293 268.179 35.0431C268.179 38.9 270.622 42.5187 274.402 44.2397C274.8 44.4657 274.942 44.9734 274.716 45.3727C274.535 45.6946 274.161 45.8587 273.804 45.772C269.413 44.0354 266.53 39.7792 266.539 35.0431C266.539 28.6664 271.685 23.5 278.034 23.5C281.084 23.5 284.007 24.7165 286.165 26.8803C288.327 29.0409 289.542 31.9785 289.533 35.04" fill="white"/>
<path d="M286.316 35.2256C286.264 36.795 285.823 38.3242 285.028 39.6769C284.346 40.751 283.433 41.6518 282.351 42.3174C281.926 42.4969 281.435 42.2957 281.26 41.8685C281.09 41.4661 281.26 40.9987 281.648 40.7975C282.98 39.8936 283.967 38.5563 284.436 37.0117C284.59 36.4297 284.67 35.8292 284.676 35.2256C284.651 31.542 281.657 28.5796 277.988 28.6044C274.356 28.6291 271.417 31.5791 271.392 35.2256C271.405 35.8323 271.488 36.4359 271.639 37.0241C272.04 38.3861 272.851 39.5933 273.955 40.4817C274.374 40.717 274.562 41.2216 274.399 41.6735C274.152 42.1626 273.557 42.3607 273.07 42.1131C273.045 42.1007 273.02 42.0852 272.996 42.0697C272.222 41.3825 271.565 40.5746 271.044 39.6769C270.248 38.3242 269.804 36.7919 269.752 35.2225C269.752 30.6319 273.458 26.9111 278.034 26.9111C282.61 26.9111 286.313 30.6319 286.313 35.2225" fill="white"/>
<path d="M278.04 44.2711L274.084 38.6466C272.604 36.7305 272.545 34.1024 273.948 32.2421C274.744 31.1834 275.94 30.4962 277.312 30.3074C278.709 30.1124 280.106 30.4591 281.145 31.2515C282.369 32.1863 283.109 33.6072 283.171 35.1487C283.22 36.3591 282.681 37.2196 281.703 38.7828C280.741 40.3151 279.723 41.8597 278.672 43.3703L278.043 44.2742L278.04 44.2711ZM278.058 31.8025C277.88 31.8025 277.698 31.8149 277.519 31.8396C276.557 31.9727 275.721 32.4464 275.175 33.1738C274.192 34.477 274.247 36.3405 275.308 37.7056L275.33 37.7365L278.028 41.5718C278.845 40.3739 279.637 39.1605 280.393 37.9563C281.401 36.3498 281.654 35.87 281.626 35.2106C281.583 34.1303 281.065 33.1367 280.208 32.4835C279.631 32.0439 278.854 31.8025 278.055 31.8025H278.058Z" fill="white"/>
</g>
<path d="M67.0833 56.7969V49.0969H67.9853C69.3053 49.0969 70.0863 50.1529 70.0863 52.9469C70.0863 55.7409 69.2943 56.7969 67.9743 56.7969H67.0833ZM68.0073 49.6909H67.7323V56.2139H68.0073C68.9093 56.2139 69.4373 55.3119 69.4373 52.9469C69.4373 50.5929 68.9093 49.6909 68.0073 49.6909ZM70.8442 56.7969L72.0322 49.0969H72.8792L74.0672 56.7969H73.4182L73.1322 54.8169H71.7352L71.4492 56.7969H70.8442ZM71.9552 53.3099L71.8232 54.2559H73.0552L72.9232 53.3099L72.4392 49.6799L71.9552 53.3099ZM76.4431 56.8739C75.4641 56.8739 74.9581 56.0159 74.9361 54.2339H75.5301C75.5741 55.6969 75.8711 56.3019 76.4321 56.3019C76.8611 56.3019 77.1471 55.8949 77.1471 55.2129C77.1471 54.2559 76.5861 53.6069 76.0251 52.9359C75.5081 52.2869 74.9911 51.6159 74.9911 50.6259C74.9911 49.6249 75.4861 49.0199 76.2671 49.0199C77.1801 49.0199 77.6751 49.8229 77.7301 51.6159H77.1361C77.0811 50.1969 76.7841 49.5919 76.2671 49.5919C75.8601 49.5919 75.6181 49.9549 75.6181 50.5709C75.6181 51.2969 76.0031 51.8359 76.4431 52.3859C77.0481 53.1449 77.7631 53.9039 77.7631 55.1579C77.7631 56.2249 77.2461 56.8739 76.4431 56.8739ZM78.9217 56.7969V49.0969H79.5707V52.5399H81.1547V49.0969H81.8037V56.7969H81.1547V53.1229H79.5707V56.7969H78.9217ZM83.0969 56.7969V49.0969H84.2739C85.2419 49.0969 85.8689 49.7129 85.8689 51.0329C85.8689 51.9129 85.5829 52.5069 85.0659 52.7709C85.6269 53.0459 85.9569 53.6839 85.9569 54.6849C85.9569 56.0929 85.3189 56.7969 84.3179 56.7969H83.0969ZM84.2739 49.6689H83.7459V52.5069H84.2739C84.8679 52.5069 85.2419 52.0449 85.2419 51.0769C85.2419 50.1309 84.8679 49.6689 84.2739 49.6689ZM84.3179 53.0679H83.7459V56.2249H84.3179C84.9339 56.2249 85.3189 55.6969 85.3189 54.6519C85.3189 53.5959 84.9339 53.0679 84.3179 53.0679ZM88.5746 56.8629C87.5516 56.8629 87.0126 55.8289 87.0126 52.9469C87.0126 50.0649 87.5516 49.0309 88.5746 49.0309C89.5976 49.0309 90.1476 50.0649 90.1476 52.9469C90.1476 55.8289 89.5976 56.8629 88.5746 56.8629ZM88.5746 56.2909C89.1686 56.2909 89.5096 55.3009 89.5096 52.9469C89.5096 50.5929 89.1686 49.6029 88.5746 49.6029C87.9806 49.6029 87.6506 50.5929 87.6506 52.9469C87.6506 55.3009 87.9806 56.2909 88.5746 56.2909ZM90.9686 56.7969L92.1566 49.0969H93.0036L94.1916 56.7969H93.5426L93.2566 54.8169H91.8596L91.5736 56.7969H90.9686ZM92.0796 53.3099L91.9476 54.2559H93.1796L93.0476 53.3099L92.5636 49.6799L92.0796 53.3099ZM95.2253 56.7969V49.0969H96.4133C97.4253 49.0969 98.0633 49.7129 98.0633 51.0879C98.0633 52.0009 97.7663 52.6059 97.2493 52.8809C97.7003 53.0569 97.8873 53.4529 97.8873 54.1239C97.8873 55.3999 97.9093 56.1479 98.0853 56.7969H97.4363C97.3043 56.2359 97.2603 55.6309 97.2603 54.0689C97.2603 53.4419 97.0183 53.1889 96.5453 53.1889H95.8743V56.7969H95.2253ZM96.4243 49.6799H95.8743V52.6169H96.4243C97.0403 52.6169 97.4253 52.1549 97.4253 51.1429C97.4253 50.1199 97.0403 49.6799 96.4243 49.6799ZM99.2287 56.7969V49.0969H100.131C101.451 49.0969 102.232 50.1529 102.232 52.9469C102.232 55.7409 101.44 56.7969 100.12 56.7969H99.2287ZM100.153 49.6909H99.8777V56.2139H100.153C101.055 56.2139 101.583 55.3119 101.583 52.9469C101.583 50.5929 101.055 49.6909 100.153 49.6909Z" fill="#0B9DFB"/>
<g clip-path="url(#clip2_206_4839)">
<path d="M82.9879 37.0461C82.0537 36.3341 81.8717 34.9999 82.5809 34.062C83.2901 33.1241 84.6191 32.9414 85.5534 33.6534C86.0591 34.0372 86.3644 34.6285 86.389 35.2631C86.4229 36.4455 85.4979 37.4299 84.32 37.467C83.8421 37.4825 83.3734 37.3339 82.9879 37.0461Z" fill="#0B9DFB"/>
<path d="M92.5489 35.2256C92.4964 36.795 92.0555 38.3242 91.26 39.6769C90.5785 40.751 89.6658 41.6518 88.5835 42.3174C88.158 42.4969 87.6677 42.2957 87.4919 41.8685C87.3223 41.4661 87.4919 40.9987 87.8805 40.7975C89.2125 39.8936 90.1992 38.5563 90.6679 37.0117C90.8221 36.4297 90.9023 35.8292 90.9084 35.2256C90.8838 31.542 87.8897 28.5796 84.2204 28.6044C80.588 28.6291 77.6495 31.5791 77.6248 35.2256C77.6371 35.8323 77.7204 36.4359 77.8715 37.0241C78.2723 38.3861 79.0833 39.5933 80.1872 40.4817C80.6065 40.717 80.7946 41.2216 80.6312 41.6735C80.3845 42.1626 79.7894 42.3607 79.3022 42.1131C79.2775 42.1007 79.2529 42.0852 79.2282 42.0697C78.4542 41.3825 77.7975 40.5746 77.2764 39.6769C76.4808 38.3242 76.0368 36.7919 75.9844 35.2225C75.9844 30.6319 79.6907 26.9111 84.2635 26.9111C88.8363 26.9111 92.5458 30.6319 92.5458 35.2225" fill="#0B9DFB"/>
<path d="M95.7651 35.0431C95.7651 36.5691 95.469 38.0797 94.8863 39.4851C94.3035 40.8719 93.4586 42.1348 92.3979 43.2028C91.4821 44.1593 90.4245 44.9734 89.2651 45.611C88.71 45.7937 88.1118 45.5027 87.9114 44.9517C87.8189 44.5462 87.97 44.1252 88.303 43.8776C89.9527 43.0511 91.3588 41.8098 92.3856 40.2713C92.8142 39.6244 94.0846 37.5071 94.1277 35.04C94.2171 29.9015 89.8263 25.1437 84.2698 25.1437C78.7134 25.1437 74.4119 29.9293 74.4119 35.0431C74.4119 38.9 76.854 42.5187 80.6344 44.2397C81.0322 44.4657 81.174 44.9734 80.9489 45.3727C80.767 45.6946 80.3939 45.8587 80.0362 45.772C75.6453 44.0354 72.7623 39.7792 72.7715 35.0431C72.7715 28.6664 77.9178 23.5 84.2667 23.5C87.3163 23.5 90.2394 24.7165 92.3979 26.8803C94.5594 29.0409 95.7743 31.9785 95.7651 35.04" fill="#0B9DFB"/>
<path d="M92.5489 35.2256C92.4964 36.795 92.0555 38.3242 91.26 39.6769C90.5785 40.751 89.6658 41.6518 88.5835 42.3174C88.158 42.4969 87.6677 42.2957 87.4919 41.8685C87.3223 41.4661 87.4919 40.9987 87.8805 40.7975C89.2125 39.8936 90.1992 38.5563 90.6679 37.0117C90.8221 36.4297 90.9023 35.8292 90.9084 35.2256C90.8838 31.542 87.8897 28.5796 84.2204 28.6044C80.588 28.6291 77.6495 31.5791 77.6248 35.2256C77.6371 35.8323 77.7204 36.4359 77.8715 37.0241C78.2723 38.3861 79.0833 39.5933 80.1872 40.4817C80.6065 40.717 80.7946 41.2216 80.6312 41.6735C80.3845 42.1626 79.7894 42.3607 79.3022 42.1131C79.2775 42.1007 79.2529 42.0852 79.2282 42.0697C78.4542 41.3825 77.7975 40.5746 77.2764 39.6769C76.4808 38.3242 76.0368 36.7919 75.9844 35.2225C75.9844 30.6319 79.6907 26.9111 84.2666 26.9111C88.8425 26.9111 92.5458 30.6319 92.5458 35.2225" fill="#0B9DFB"/>
<path d="M84.2723 44.2711L80.3162 38.6466C78.8362 36.7305 78.7776 34.1024 80.1806 32.2421C80.9761 31.1834 82.1725 30.4962 83.5446 30.3074C84.9415 30.1124 86.3383 30.4591 87.3774 31.2515C88.6015 32.1863 89.3416 33.6072 89.4033 35.1487C89.4526 36.3591 88.913 37.2196 87.9355 38.7828C86.9735 40.3151 85.9559 41.8597 84.9045 43.3703L84.2754 44.2742L84.2723 44.2711ZM84.2908 31.8025C84.112 31.8025 83.9301 31.8149 83.7512 31.8396C82.7892 31.9727 81.9536 32.4464 81.4078 33.1738C80.4241 34.477 80.4797 36.3405 81.5404 37.7056L81.562 37.7365L84.26 41.5718C85.0771 40.3739 85.8696 39.1605 86.625 37.9563C87.6333 36.3498 87.8862 35.87 87.8584 35.2106C87.8153 34.1303 87.2972 33.1367 86.44 32.4835C85.8634 32.0439 85.0864 31.8025 84.2878 31.8025H84.2908Z" fill="#0B9DFB"/>
</g>
<g opacity="0.81">
<path d="M165.646 56.8739C164.667 56.8739 164.161 56.0159 164.139 54.2339H164.733C164.777 55.6969 165.074 56.3019 165.635 56.3019C166.064 56.3019 166.35 55.8949 166.35 55.2129C166.35 54.2559 165.789 53.6069 165.228 52.9359C164.711 52.2869 164.194 51.6159 164.194 50.6259C164.194 49.6249 164.689 49.0199 165.47 49.0199C166.383 49.0199 166.878 49.8229 166.933 51.6159H166.339C166.284 50.1969 165.987 49.5919 165.47 49.5919C165.063 49.5919 164.821 49.9549 164.821 50.5709C164.821 51.2969 165.206 51.8359 165.646 52.3859C166.251 53.1449 166.966 53.9039 166.966 55.1579C166.966 56.2249 166.449 56.8739 165.646 56.8739ZM167.872 56.7969L169.06 49.0969H169.907L171.095 56.7969H170.446L170.16 54.8169H168.763L168.477 56.7969H167.872ZM168.983 53.3099L168.851 54.2559H170.083L169.951 53.3099L169.467 49.6799L168.983 53.3099ZM174.507 49.0969L173.33 56.7969H172.472L171.284 49.0969H171.922L172.428 52.5729L172.912 56.2029L173.396 52.5729L173.902 49.0969H174.507ZM175.541 56.7969V49.0969H178.038V49.6799H176.19V52.5289H177.521V53.1119H176.19V56.2249H178.038V56.7969H175.541ZM179.179 56.7969V49.0969H180.081C181.401 49.0969 182.182 50.1529 182.182 52.9469C182.182 55.7409 181.39 56.7969 180.07 56.7969H179.179ZM180.103 49.6909H179.828V56.2139H180.103C181.005 56.2139 181.533 55.3119 181.533 52.9469C181.533 50.5929 181.005 49.6909 180.103 49.6909ZM186.917 56.8739C185.938 56.8739 185.432 56.0159 185.41 54.2339H186.004C186.048 55.6969 186.345 56.3019 186.906 56.3019C187.335 56.3019 187.621 55.8949 187.621 55.2129C187.621 54.2559 187.06 53.6069 186.499 52.9359C185.982 52.2869 185.465 51.6159 185.465 50.6259C185.465 49.6249 185.96 49.0199 186.741 49.0199C187.654 49.0199 188.149 49.8229 188.204 51.6159H187.61C187.555 50.1969 187.258 49.5919 186.741 49.5919C186.334 49.5919 186.092 49.9549 186.092 50.5709C186.092 51.2969 186.477 51.8359 186.917 52.3859C187.522 53.1449 188.237 53.9039 188.237 55.1579C188.237 56.2249 187.72 56.8739 186.917 56.8739ZM189.395 56.7969V49.0969H190.539C191.562 49.0969 192.244 49.7459 192.244 51.2529C192.244 52.7269 191.573 53.3869 190.539 53.3869H190.044V56.7969H189.395ZM190.55 49.6799H190.044V52.8149H190.55C191.188 52.8149 191.606 52.3639 191.606 51.2419C191.606 50.1309 191.188 49.6799 190.55 49.6799ZM194.873 56.8629C193.85 56.8629 193.311 55.8289 193.311 52.9469C193.311 50.0649 193.85 49.0309 194.873 49.0309C195.896 49.0309 196.446 50.0649 196.446 52.9469C196.446 55.8289 195.896 56.8629 194.873 56.8629ZM194.873 56.2909C195.467 56.2909 195.808 55.3009 195.808 52.9469C195.808 50.5929 195.467 49.6029 194.873 49.6029C194.279 49.6029 193.949 50.5929 193.949 52.9469C193.949 55.3009 194.279 56.2909 194.873 56.2909ZM198.306 56.7969V49.6799H197.151V49.0969H200.121V49.6799H198.955V56.7969H198.306ZM202.404 56.8739C201.425 56.8739 200.919 56.0159 200.897 54.2339H201.491C201.535 55.6969 201.832 56.3019 202.393 56.3019C202.822 56.3019 203.108 55.8949 203.108 55.2129C203.108 54.2559 202.547 53.6069 201.986 52.9359C201.469 52.2869 200.952 51.6159 200.952 50.6259C200.952 49.6249 201.447 49.0199 202.228 49.0199C203.141 49.0199 203.636 49.8229 203.691 51.6159H203.097C203.042 50.1969 202.745 49.5919 202.228 49.5919C201.821 49.5919 201.579 49.9549 201.579 50.5709C201.579 51.2969 201.964 51.8359 202.404 52.3859C203.009 53.1449 203.724 53.9039 203.724 55.1579C203.724 56.2249 203.207 56.8739 202.404 56.8739Z" fill="white"/>
</g>
<g opacity="0.81" clip-path="url(#clip3_206_4839)">
<path d="M195.087 35.0431C195.087 36.5691 194.791 38.0797 194.209 39.4851C193.626 40.8719 192.781 42.1348 191.72 43.2028C190.804 44.1593 189.747 44.9734 188.587 45.611C188.032 45.7937 187.434 45.5027 187.234 44.9517C187.141 44.5462 187.292 44.1252 187.625 43.8776C189.275 43.0511 190.681 41.8098 191.708 40.2713C192.136 39.6244 193.407 37.5071 193.45 35.04C193.539 29.9015 189.149 25.1437 183.592 25.1437C178.036 25.1437 173.734 29.9293 173.734 35.0431C173.734 38.9 176.176 42.5187 179.957 44.2397C180.354 44.4657 180.496 44.9734 180.271 45.3727C180.089 45.6946 179.716 45.8587 179.358 45.772C174.968 44.0354 172.085 39.7792 172.094 35.0431C172.094 28.6664 177.24 23.5 183.589 23.5C186.639 23.5 189.562 24.7165 191.72 26.8803C193.882 29.0409 195.097 31.9785 195.087 35.04" fill="white"/>
<path d="M191.871 35.2256C191.819 36.795 191.378 38.3242 190.582 39.6769C189.901 40.751 188.988 41.6518 187.906 42.3174C187.48 42.4969 186.99 42.2957 186.814 41.8685C186.645 41.4661 186.814 40.9987 187.203 40.7975C188.535 39.8936 189.522 38.5563 189.99 37.0117C190.144 36.4297 190.225 35.8292 190.231 35.2256C190.206 31.542 187.212 28.5796 183.543 28.6044C179.91 28.6291 176.972 31.5791 176.947 35.2256C176.959 35.8323 177.043 36.4359 177.194 37.0241C177.595 38.3861 178.406 39.5933 179.509 40.4817C179.929 40.717 180.117 41.2216 179.953 41.6735C179.707 42.1626 179.112 42.3607 178.624 42.1131C178.6 42.1007 178.575 42.0852 178.55 42.0697C177.777 41.3825 177.12 40.5746 176.599 39.6769C175.803 38.3242 175.359 36.7919 175.307 35.2225C175.307 30.6319 179.013 26.9111 183.589 26.9111C188.165 26.9111 191.868 30.6319 191.868 35.2225" fill="white"/>
<path d="M188.707 34.5231V34.9843C188.655 35.4332 188.556 35.8541 188.353 36.2566C188.008 36.9933 187.246 37.8074 186.642 38.3491L185.901 39.0115L183.99 40.6614C183.755 40.8626 183.425 40.8626 183.191 40.6614L181.11 38.863C180.693 38.5039 180.302 38.1417 179.923 37.7455C179.062 36.8509 178.393 35.8263 178.483 34.5324C178.529 33.8823 178.735 33.2694 179.13 32.7556C179.639 32.0962 180.397 31.7031 181.23 31.6783C182.211 31.6381 183.015 32.1272 183.589 32.9103C184.19 32.0869 185.032 31.604 186.056 31.6814C186.845 31.7402 187.551 32.1179 188.041 32.7432C188.448 33.2632 188.643 33.8792 188.707 34.5231Z" fill="white"/>
</g>
<path d="M12.5 12.5H440.5" stroke="url(#paint0_linear_206_4839)"/>
</g>
</g>
<defs>
<filter id="filter0_d_206_4839" x="0" y="0" width="454" height="84" filterUnits="userSpaceOnUse" color-interpolation-filters="sRGB">
<feFlood flood-opacity="0" result="BackgroundImageFix"/>
<feColorMatrix in="SourceAlpha" type="matrix" values="0 0 0 0 0 0 0 0 0 0 0 0 0 0 0 0 0 0 127 0" result="hardAlpha"/>
<feMorphology radius="1" operator="dilate" in="SourceAlpha" result="effect1_dropShadow_206_4839"/>
<feOffset/>
<feGaussianBlur stdDeviation="5.75"/>
<feComposite in2="hardAlpha" operator="out"/>
<feColorMatrix type="matrix" values="0 0 0 0 0 0 0 0 0 0 0 0 0 0 0 0 0 0 0.26 0"/>
<feBlend mode="normal" in2="BackgroundImageFix" result="effect1_dropShadow_206_4839"/>
<feBlend mode="normal" in="SourceGraphic" in2="effect1_dropShadow_206_4839" result="shape"/>
</filter>
<linearGradient id="paint0_linear_206_4839" x1="12.5" y1="14" x2="440.5" y2="14" gradientUnits="userSpaceOnUse">
<stop stop-color="#07A7FB"/>
<stop offset="1" stop-color="#006FFF"/>
</linearGradient>
<clipPath id="clip0_206_4839">
<rect width="429" height="59" fill="white" transform="translate(12.5 12.5)"/>
</clipPath>
<clipPath id="clip1_206_4839">
<rect width="22.9935" height="22.2968" fill="white" transform="translate(266.539 23.5)"/>
</clipPath>
<clipPath id="clip2_206_4839">
<rect width="22.9935" height="22.2968" fill="white" transform="translate(72.7715 23.5)"/>
</clipPath>
<clipPath id="clip3_206_4839">
<rect width="22.9935" height="22.2968" fill="white" transform="translate(172.094 23.5)"/>
</clipPath>
</defs>
</svg>
